<svg version="1.1" xmlns="http://www.w3.org/2000/svg" xmlns:xlink="http://www.w3.org/1999/xlink" width="49" height="46"><defs/><g><path fill="rgb(38,38,38)" stroke="none" paint-order="stroke fill markers" fill-rule="evenodd" d=" M 46.064337730407715 7.005572080612183 C 45.55927777290344 6.3655712604522705 44.78832149505615 5.990724444389343 43.971946477890015 5.990724444389343 C 43.971946477890015 5.990724444389343 16.85454511642456 5.990724444389343 16.85454511642456 5.990724444389343 C 16.003748416900635 5.990724444389343 15.204181909561157 6.398479104042053 14.702340602874756 7.084248304367065 C 14.200588703155518 7.773800015449524 14.057716369628906 8.6592857837677 14.316907167434692 9.468743085861206 C 14.316907167434692 9.468743085861206 19.3079617023468 25.07576072216034 19.3079617023468 25.07576072216034 C 19.527634620666504 25.76379942893982 20.1660897731781 26.229804754257202 20.8868887424469 26.229804754257202 C 20.8868887424469 26.229804754257202 41.18995928764343 26.229804754257202 41.18995928764343 26.229804754257202 C 41.95644521713257 26.229804754257202 42.623331785202026 25.704035758972168 42.802056312561035 24.959259390830994 C 42.802056312561035 24.959259390830994 46.56313920021057 9.278861045837402 46.56313920021057 9.278861045837402 C 46.75348663330078 8.485290288925171 46.569308280944824 7.647464156150818 46.064337730407715 7.005572080612183 Z M 45.42284274101257 29.18356740474701 C 45.42284274101257 29.18356740474701 19.236167907714844 29.18356740474701 19.236167907714844 29.18356740474701 C 18.30776596069336 29.18356740474701 17.49139094352722 28.589334964752197 17.206897974014282 27.707253456115723 C 17.206897974014282 27.707253456115723 9.998461246490479 5.354884386062622 9.998461246490479 5.354884386062622 C 9.31825304031372 3.2427303791046143 7.370611667633057 1.823154091835022 5.152514219284058 1.823154091835022 C 5.152514219284058 1.823154091835022 3.5770740509033203 1.823154091835022 3.5770740509033203 1.823154091835022 C 2.2362377643585205 1.823154091835022 1.1498537063598633 2.9110041856765747 1.1498537063598633 4.2515259981155396 C 1.1498537063598633 5.5939390659332275 2.2362377643585205 6.680276155471802 3.5770740509033203 6.680276155471802 C 3.5770740509033203 6.680276155471802 5.152514219284058 6.680276155471802 5.152514219284058 6.680276155471802 C 5.2563157081604 6.680276155471802 5.346169710159302 6.746470093727112 5.377730369567871 6.844437122344971 C 5.377730369567871 6.844437122344971 12.586077690124512 29.196049690246582 12.586077690124512 29.196049690246582 C 13.521095752716064 32.09420943260193 16.19338059425354 34.04068946838379 19.23607850074768 34.04068946838379 C 19.23607850074768 34.04068946838379 45.42275333404541 34.04068946838379 45.42275333404541 34.04068946838379 C 46.76358962059021 34.04068946838379 47.85006308555603 32.954352378845215 47.85006308555603 31.61231756210327 C 47.85006308555603 30.271039247512817 46.76358962059021 29.18356740474701 45.42284274101257 29.18356740474701 Z M 20.95698380470276 36.83709967136383 C 18.818994998931885 36.83709967136383 17.08628797531128 38.571380853652954 17.08628797531128 40.71039068698883 C 17.08628797531128 42.84977877140045 18.818994998931885 44.58216869831085 20.95698380470276 44.58216869831085 C 23.09434676170349 44.58216869831085 24.8277690410614 42.84977877140045 24.8277690410614 40.71039068698883 C 24.8277690410614 38.571380853652954 23.09434676170349 36.83709967136383 20.95698380470276 36.83709967136383 Z M 41.286250591278076 36.83709967136383 C 39.148887634277344 36.83709967136383 37.4155547618866 38.571380853652954 37.4155547618866 40.71039068698883 C 37.4155547618866 42.84977877140045 39.14906644821167 44.58216869831085 41.286250591278076 44.58216869831085 C 43.42432880401611 44.58216869831085 45.15739345550537 42.84977877140045 45.15739345550537 40.71039068698883 C 45.15739345550537 38.571380853652954 43.424418210983276 36.83709967136383 41.286250591278076 36.83709967136383 Z"/></g></svg>